<?xml version="1.0" encoding="UTF-8"?>
<svg id="Layer_2" data-name="Layer 2" xmlns="http://www.w3.org/2000/svg" viewBox="0 0 234.75 170.67">
  <g id="Layer_1-2" data-name="Layer 1">
    <path d="m197.76,74.58c-.46-1.3-1.26-1.81-1.89-2.44-17.79-17.8-35.6-35.59-53.37-53.4-6.14-6.16-4.23-15.59,3.67-18.15,4.16-1.34,7.91-.38,11.03,2.71,5.03,4.99,10.02,10.01,15.03,15.02,19.44,19.45,38.89,38.89,58.33,58.34,5.55,5.55,5.58,11.52.07,17.03-24.33,24.34-48.68,48.66-73,73.02-3.18,3.19-6.77,4.79-11.28,3.54-7.44-2.06-10.26-11.13-5.31-17.06.59-.7,1.26-1.33,1.91-1.98,17.62-17.62,35.24-35.24,52.85-52.86.64-.64,1.25-1.31,1.98-2.07-1.01-.72-2.02-.42-2.94-.42-60.66-.02-121.33-.01-181.99-.03-1.58,0-3.2.04-4.72-.29C3.13,94.42-.46,89.37.05,84.38c.55-5.44,4.63-9.45,9.97-9.76,1.08-.06,2.17-.04,3.25-.04,60.42,0,120.83,0,181.25,0,.98,0,1.97,0,3.25,0Z"/>
  </g>
</svg>