<?xml version="1.0" encoding="UTF-8"?>
<svg id="Layer_2" data-name="Layer 2" xmlns="http://www.w3.org/2000/svg" viewBox="0 0 255.72 255.69">
  <g id="Layer_1-2" data-name="Layer 1">
    <path d="m85.77,134.8c-39.02-27.62-41.8-81.44-10.23-112.98,29.73-29.69,76.6-28.63,105.07.46,31.37,32.05,27.76,85.07-10.46,112.32.58.95,1.66.95,2.51,1.29,41.05,16.5,67.59,45.97,79.21,88.71,2.56,9.42,3.57,19.1,3.84,28.86.05,1.73-.37,2.28-2.16,2.24-5.24-.12-10.49-.13-15.73,0-1.83.04-2.14-.62-2.17-2.27-.48-20.34-5.95-39.26-17.27-56.19-18.43-27.54-43.97-44.32-77.05-48.43-32.72-4.07-61.56,5.2-86.02,27.34-20.19,18.28-31.59,41.19-34.73,68.21-.35,3.05-.48,6.14-.52,9.21-.02,1.55-.36,2.16-2.06,2.13-5.32-.11-10.65-.11-15.98,0-1.7.03-2.05-.54-2.01-2.12.58-25.34,7.68-48.65,22.02-69.59,15.44-22.55,35.97-38.72,61.64-48.27.61-.23,1.2-.51,2.11-.9Zm96.01-60.96c-.06-29.62-24.23-53.79-53.86-53.85-29.67-.06-54.04,24.31-53.99,53.97.06,29.62,24.23,53.79,53.86,53.85,29.67.06,54.04-24.31,53.99-53.97Z"/>
  </g>
</svg>