<?xml version="1.0" encoding="UTF-8"?>
<svg id="Layer_2" data-name="Layer 2" xmlns="http://www.w3.org/2000/svg" viewBox="0 0 256.04 227.44">
  <g id="Layer_1-2" data-name="Layer 1">
    <g>
      <path d="m.07,136.6c0-19.41,0-38.82,0-58.24.01-25.66,16.85-45.84,42.09-50.43,2.79-.51,5.62-.69,8.46-.69,27.41,0,54.82,0,82.23,0,5.91,0,9.85,3.02,10.9,8.25,1.13,5.64-3.06,11.23-8.79,11.69-1.08.09-2.16.06-3.25.06-26.91,0-53.82-.02-80.73,0-15.98.02-28.24,10.53-30.64,26.24-.23,1.47-.25,2.99-.25,4.48-.01,39.32,0,78.65-.04,117.97,0,4.68,1.53,8.39,5.9,10.36,4.48,2.02,8.36.72,11.87-2.53,4.77-4.41,9.72-8.63,14.49-13.04,2.66-2.47,5.66-3.54,9.28-3.54,34.58.05,69.15.05,103.73.02,14.88-.01,26.5-9.12,29.99-23.38.56-2.27.78-4.59.77-6.93-.02-7.16-.03-14.33,0-21.49.02-6.05,4.3-10.56,9.96-10.59,5.67-.03,10.09,4.48,10.01,10.51-.12,9.49.58,19-.45,28.47-2.32,21.32-20.54,39.96-41.77,42.87-3.15.43-6.3.56-9.47.56-32.33,0-64.65.02-96.98-.04-2.4,0-4.21.56-5.99,2.25-4.04,3.84-8.14,7.66-12.53,11.1-9.55,7.49-20.21,8.98-31.2,3.92C6.39,219.29.31,210.03.14,197.58c-.27-20.33-.07-40.66-.08-60.99Z"/>
      <path d="m108.78,133.83c1.16-20.34,8.85-37.76,23.22-52.18,24.18-24.25,48.4-48.47,72.65-72.65C213.69,0,226.76-2.45,238.09,2.56c11.48,5.07,18.51,16.31,17.91,28.93-.35,7.43-3.07,14-8.33,19.28-25.12,25.2-50.11,50.53-75.57,75.39-14.56,14.21-32.59,20.91-52.98,21.07-6.01.05-10.22-4.16-10.34-10.16-.02-1.08,0-2.16,0-3.25ZM226.19,20.06c-3.03-.07-5.47,1.15-7.57,3.26-24.5,24.52-49.05,49-73.5,73.57-7.51,7.55-12.31,16.69-14.82,27.04-.44,1.82-.28,2.33,1.79,1.83,10.99-2.63,20.37-8.02,28.33-15.99,23.91-23.93,47.84-47.85,71.76-71.78.65-.65,1.31-1.3,1.84-2.04,2.35-3.25,2.75-6.77.97-10.37-1.78-3.58-4.79-5.42-8.81-5.55Z"/>
      <path d="m65,107.25c-4.83,0-9.65.04-14.48,0-6-.06-10.36-4.17-10.44-9.78-.09-5.69,4.33-10.15,10.34-10.2,9.74-.08,19.47-.07,29.21,0,6.06.04,10.48,4.4,10.45,10.09-.03,5.7-4.44,9.84-10.59,9.89-4.83.04-9.65,0-14.48,0Z"/>
      <path d="m65,147.25c-4.83,0-9.65.04-14.48,0-6-.06-10.36-4.17-10.44-9.78-.09-5.69,4.33-10.15,10.34-10.2,9.74-.08,19.47-.07,29.21,0,6.06.04,10.48,4.4,10.45,10.09-.03,5.7-4.44,9.84-10.59,9.89-4.83.04-9.65,0-14.48,0Z"/>
    </g>
  </g>
</svg>