<?xml version="1.0" encoding="UTF-8"?>
<svg id="Layer_2" data-name="Layer 2" xmlns="http://www.w3.org/2000/svg" viewBox="0 0 176.14 112.03">
  <g id="Layer_1-2" data-name="Layer 1">
    <g>
      <path d="m72.08,112.03c-5.56.03-9.32-5.27-7.5-10.83,3.58-10.99,7.3-21.94,10.95-32.91,6.86-20.6,13.71-41.2,20.58-61.8,1.63-4.88,5.59-7.35,9.87-6.2,4.84,1.3,7.12,5.88,5.4,11.06-4.58,13.82-9.22,27.62-13.82,41.43-5.86,17.6-11.71,35.2-17.58,52.8-1.4,4.2-4.17,6.44-7.91,6.46Z"/>
      <path d="m135.88,96.09c-3.39-.13-5.91-1.71-7.24-4.82-1.37-3.2-.82-6.25,1.64-8.76,4.96-5.05,9.99-10.02,15-15.02,3.24-3.24,6.38-6.58,9.75-9.67,1.61-1.48,1.34-2.26-.08-3.65-8.13-7.99-16.17-16.09-24.22-24.16-2.38-2.39-3.21-5.23-2.12-8.46,1.02-3.02,3.24-4.79,6.36-5.31,2.54-.42,4.84.3,6.65,2.1,10.74,10.68,21.48,21.37,32.13,32.14,3.23,3.26,3.16,7.91-.1,11.21-10.66,10.76-21.4,21.45-32.13,32.15-1.54,1.53-3.44,2.3-5.65,2.26Z"/>
      <path d="m47.97,88.02c-.23,3.19-1.62,5.81-4.78,7.17-3.33,1.44-6.39.82-8.96-1.71-4.87-4.79-9.68-9.65-14.51-14.48-5.54-5.54-11.09-11.07-16.61-16.62-4.13-4.14-4.15-8.56-.05-12.66,10.24-10.26,20.49-20.52,30.76-30.76,3.75-3.74,8.62-3.92,11.95-.51,3.25,3.33,3.04,8.1-.62,11.78-7.82,7.86-15.67,15.68-23.5,23.51q-2.28,2.28.09,4.64c7.78,7.78,15.54,15.57,23.35,23.32,1.74,1.73,2.76,3.72,2.9,6.31Z"/>
    </g>
  </g>
</svg>