<?xml version="1.0" encoding="UTF-8"?>
<svg id="Layer_2" data-name="Layer 2" xmlns="http://www.w3.org/2000/svg" viewBox="0 0 256.11 245.37">
  <g id="Layer_1-2" data-name="Layer 1">
    <g id="EEQnmt.tif">
      <path d="m151.04,181.28c7.92-1.01,15.29-2.26,22.41-4.69,18.43-6.27,29.76-18.93,33.87-37.93,1.95-9,2.61-18.13,1.35-27.31-1.27-9.25-5.13-17.34-11.21-24.37-.94-1.09-1.1-1.96-.68-3.32,3.1-10.1,2.14-20.04-1.26-29.91-.69-2.01-2.13-1.84-3.56-1.82-5.08.07-9.84,1.57-14.47,3.49-5.55,2.3-10.81,5.18-15.79,8.53-1.3.87-2.46,1.03-3.94.65-19.93-5.02-39.88-4.99-59.81,0-1.5.38-2.64.16-3.94-.67-7.87-5.05-16.03-9.53-25.32-11.46-7.43-1.54-8.32-1.02-10.13,6.16-2.17,8.57-2.45,17.12.54,25.58.37,1.06.12,1.66-.55,2.4-10.72,11.98-13.3,26.26-11.78,41.7.91,9.28,2.95,18.23,7.66,26.4,7.32,12.71,18.86,19.58,32.58,23.4,5.6,1.56,11.32,2.47,17.55,3.23-3.86,3.92-6.39,8.25-7.15,13.24-.49,3.24-2.19,4.33-4.96,5.18-14.37,4.41-25.05.51-33.27-12.21-4.39-6.79-10.24-11.54-18.54-12.7-1.7-.24-3.34,0-4.93.5-1.9.59-2.24,1.8-1.07,3.44.93,1.31,2.19,2.32,3.54,3.12,6.67,3.95,11.27,9.79,13.88,16.86,5.91,16.05,20.68,21.57,35.73,20.13,2.15-.21,4.33-.39,6.43-.9,1.69-.41,1.95.13,1.95,1.64,0,6,.12,12,.15,18,.04,6.29-3.85,9.08-9.87,7.06-16.96-5.71-32.12-14.55-45.31-26.64C19.83,198.56,6.32,174.6,1.75,146.06c-5.68-35.52,2.42-67.93,24.48-96.38C47.34,22.46,75.33,6.25,109.4,1.37c68.08-9.76,129.3,33.82,143.22,96.2,10.58,47.43-3.09,88.05-38.61,121.13-12.71,11.84-27.67,20.15-44.15,25.67-1.02.34-2.07.68-3.13.77-4.7.38-7.28-1.96-7.29-6.67-.01-10.42.07-20.83.08-31.25,0-2.41.01-4.84-.23-7.24-.7-6.94-2.82-13.32-8.25-18.7Z"/>
    </g>
  </g>
</svg>