<?xml version="1.0" encoding="UTF-8"?>
<svg id="Layer_2" data-name="Layer 2" xmlns="http://www.w3.org/2000/svg" viewBox="0 0 256.01 256.02">
  <g id="Layer_1-2" data-name="Layer 1">
    <path d="m0,127.75C0,97.26,0,66.76,0,36.27,0,15.11,15.06,0,36.15,0c61.24,0,122.47,0,183.71,0,20.99,0,36.14,15.1,36.14,36.02,0,61.32,0,122.64,0,183.96,0,20.82-15.14,36.02-35.9,36.02-61.4.01-122.81.01-184.21,0C15.15,256,.01,240.79,0,219.98c-.01-30.74,0-61.49,0-92.23Zm136.35-14.49c0-2.31.04-4.52,0-6.72-.09-3.87-1.87-5.66-5.72-5.68-7.5-.04-15-.04-22.5,0-3.84.02-5.61,1.84-5.61,5.74-.01,31.83-.01,63.67,0,95.5,0,4.09,1.85,5.89,6.01,5.9,6.83.02,13.67,0,20.5,0,5.82,0,7.22-1.39,7.22-7.21,0-16-.03-32,.02-48,.02-6.02,1.34-11.75,4.63-16.87,4.14-6.43,10.26-8.42,17.54-7.4,6.56.91,10.52,4.93,12.58,11.04,1.79,5.3,1.88,10.79,1.87,16.3-.02,15.33-.04,30.67-.03,46,0,4.36,1.74,6.09,6.04,6.1,7.5.02,15,.02,22.5,0,4.27-.01,6.09-1.83,6.09-6.1,0-17.67.03-35.33-.09-53-.05-7.25-.63-14.48-2.43-21.55-3.29-12.95-10.21-22.67-23.73-26.47-4.04-1.14-8.18-1.61-12.34-1.64-12.63-.11-23.99,2.78-31.81,13.81-.07.09-.26.1-.72.25Zm-82.86,40.98c0,15.82,0,31.65,0,47.47,0,4.26,2.03,6.27,6.29,6.28,7,.02,13.99.02,20.99,0,4.44-.01,6.5-1.94,6.5-6.35.03-31.48.03-62.96,0-94.44,0-4.46-1.96-6.37-6.44-6.4-6.91-.04-13.82-.04-20.74,0-4.77.02-6.6,1.91-6.6,6.71,0,15.57,0,31.15,0,46.72Zm16.76-62.66c12.23.02,21.87-9.61,21.88-21.84,0-11.99-9.76-21.75-21.77-21.73-11.98.01-21.79,9.79-21.82,21.75-.03,12,9.73,21.8,21.7,21.82Z"/>
  </g>
</svg>